<?xml version="1.0" encoding="utf-8"?>
<!-- Generator: Adobe Illustrator 22.1.0, SVG Export Plug-In . SVG Version: 6.00 Build 0)  -->
<svg version="1.1" id="Layer_1" xmlns="http://www.w3.org/2000/svg" xmlns:xlink="http://www.w3.org/1999/xlink" x="0px" y="0px"
	 viewBox="0 0 66 66" style="enable-background:new 0 0 66 66;" xml:space="preserve">

<g>
	<!-- <circle class="st0" cx="33" cy="33" r="30.6"/> -->
	<path d="M33,66c-8.8,0-17.1-3.4-23.3-9.7C3.4,50.1,0,41.8,0,33S3.4,15.9,9.7,9.7S24.2,0,33,0s17.1,3.4,23.3,9.7S66,24.2,66,33
		s-3.4,17.1-9.7,23.3C50.1,62.6,41.8,66,33,66z M33,4.8c-7.5,0-14.6,2.9-20,8.3S4.8,25.5,4.8,33c0,7.5,2.9,14.6,8.3,20
		c5.3,5.3,12.4,8.3,20,8.3s14.6-2.9,20-8.3c5.3-5.3,8.3-12.4,8.3-20c0-7.5-2.9-14.6-8.3-20C47.6,7.7,40.5,4.8,33,4.8z"/>
</g>
<rect x="30.6" y="10.1" transform="matrix(0.7071 -0.7071 0.7071 0.7071 -13.6713 33.0054)" width="4.8" height="45.8"/>
<rect x="10.1" y="30.6" transform="matrix(0.7071 -0.7071 0.7071 0.7071 -13.6713 33.0054)" width="45.8" height="4.8"/>
</svg>
